# xmcd
#
# Track frame offsets: 
#        150
#        26787
#        65587
#        83965
#        115112
#        135677
#        164150
#        174412
#        230790
#        263562
#
# Disc length: 4201 seconds
#
# Revision: 0
# Processed by: cddbd v1.5.2PL0 Copyright (c) Steve Scherf et al.
# Submitted via: ExactAudioCopy v1.0b1
#
DISCID=8c10670a
DTITLE=John Ogdon - Liszt: Piano concertos nos. 1 and 2 - Piano sonata
DYEAR=1971
DGENRE=Classical
TTITLE0=Concerto, piano, no. 01, E-Flat Major   Allegro maestoso  S 12
TTITLE0=4
TTITLE1=Concerto, piano, no. 01, E-Flat Major   Quasi adagio  S 124 
TTITLE2=Concerto, piano, no. 01, E-Flat Major   Allegro marziale anima
TTITLE2=to  S 124
TTITLE3=Concerto, piano, no. 02, A Major   Adagio sostenuto assai - Al
TTITLE3=legro agitato assai -  S 125
TTITLE4=Concerto, piano, no. 02, A Major   Allegro moderato -  S 125
TTITLE5=Concerto, piano, no. 02, A Major   Allegro deciso - Marziale u
TTITLE5=n poco meno allegro -  S 125
TTITLE6=Concerto, piano, no. 02, A Major   Allegro animato  S 125
TTITLE7=Sonata, piano, b minor   Lento assai - Allegro energico -  S 1
TTITLE7=78 
TTITLE8=Sonata, piano, b minor   Andante sostenuto -  S 178
TTITLE9=Sonata, piano, b minor   Allegro energico -  S 178
EXTD=
EXTT0=
EXTT1=
EXTT2=
EXTT3=
EXTT4=
EXTT5=
EXTT6=
EXTT7=
EXTT8=
EXTT9=
PLAYORDER=
